<svg width="400" height="400" viewBox="0 0 400 400" xmlns="http://www.w3.org/2000/svg">
  <circle cx="200" cy="220" r="160" fill="#e74c3c"/>
  <path d="M200,60 C230,60 250,80 250,110 C250,140 230,160 200,160 C170,160 150,140 150,110 C150,80 170,60 200,60" fill="#27ae60"/>
  <path d="M200,60 L200,20" stroke="#27ae60" stroke-width="20" fill="none"/>
  <path d="M180,100 Q200,120 220,100" stroke="#c0392b" stroke-width="4" fill="none"/>
  <path d="M200,80 C310,80 350,150 350,220 C350,290 310,360 200,360 C90,360 50,290 50,220 C50,150 90,80 200,80" fill="#c0392b"/>
</svg>