<svg width="400" height="400" viewBox="0 0 400 400" xmlns="http://www.w3.org/2000/svg">
  <circle cx="200" cy="200" r="180" fill="#e74c3c"/>
  <path d="M200,20 C310,20 380,90 380,200 C380,310 310,380 200,380 C90,380 20,310 20,200 C20,90 90,20 200,20" fill="#c0392b"/>
  <path d="M200,50 C280,50 330,100 330,180 C330,260 280,310 200,310 C120,310 70,260 70,180 C70,100 120,50 200,50" fill="#e74c3c"/>
  <path d="M150,100 Q200,150 250,100" stroke="#2c3e50" stroke-width="8" fill="none"/>
  <circle cx="150" cy="150" r="20" fill="#27ae60"/>
  <path d="M150,130 Q170,120 190,140" stroke="#27ae60" stroke-width="8" fill="none"/>
</svg>